<mxfile host="app.diagrams.net" modified="2023-11-08T02:52:03.647Z" agent="Mozilla/5.0 (Windows NT 10.0; Win64; x64) AppleWebKit/537.36 (KHTML, like Gecko) Chrome/119.0.0.0 Safari/537.36" version="22.0.8" etag="QjZYfw3Sm3afduE63fG5" type="github">
  <diagram name="Halaman-1" id="qLfCn01_KR20JxXhZv7-">
    <mxGraphModel>
      <root>
        <mxCell id="0" />
        <mxCell id="1" parent="0" />
      </root>
    </mxGraphModel>
  </diagram>
</mxfile>
